{
  "accessors": [
    {
      "bufferView": 3,
      "componentType": 5126,
      "count": 82,
      "max": [
        0.3769124448299408,
        4.8522629737854,
        0.2300492525100708
      ],
      "min": [
        -0.3769124448299408,
        4.552492141723633,
        -0.008810277096927166
      ],
      "type": "VEC3"
    },
    {
      "bufferView": 3,
      "byteOffset": 984,
      "componentType": 5126,
      "count": 82,
      "max": [
        0.990980327129364,
        0.9883773922920227,
        0.9563443064689636
      ],
      "min": [
        -0.990980327129364,
        -0.9942328929901123,
        -0.97608482837677
      ],
      "type": "VEC3"
    },
    {
      "bufferView": 2,
      "componentType": 5126,
      "count": 82,
      "max": [
        0.0,
        0.0
      ],
      "min": [
        0.0,
        0.0
      ],
      "type": "VEC2"
    },
    {
      "bufferView": 1,
      "componentType": 5125,
      "count": 300,
      "type": "SCALAR"
    },
    {
      "bufferView": 3,
      "byteOffset": 1968,
      "componentType": 5126,
      "count": 1389,
      "max": [
        0.5778598785400391,
        5.345235824584961,
        0.42817607522010803
      ],
      "min": [
        -0.5778598785400391,
        0.48553991317749023,
        -0.5500525832176208
      ],
      "type": "VEC3"
    },
    {
      "bufferView": 3,
      "byteOffset": 18636,
      "componentType": 5126,
      "count": 1389,
      "max": [
        0.9998478889465332,
        1.0,
        1.0
      ],
      "min": [
        -0.9998478889465332,
        -1.0,
        -1.0
      ],
      "type": "VEC3"
    },
    {
      "bufferView": 2,
      "byteOffset": 656,
      "componentType": 5126,
      "count": 1389,
      "max": [
        0.9882028698921204,
        0.9938790798187256
      ],
      "min": [
        0.005165968555957079,
        0.018212109804153442
      ],
      "type": "VEC2"
    },
    {
      "bufferView": 1,
      "byteOffset": 1200,
      "componentType": 5125,
      "count": 5550,
      "type": "SCALAR"
    },
    {
      "bufferView": 3,
      "byteOffset": 35304,
      "componentType": 5126,
      "count": 224,
      "max": [
        1.8926230669021606,
        4.910417079925537,
        0.2939000725746155
      ],
      "min": [
        -1.8926230669021606,
        0.48553991317749023,
        -0.4926457405090332
      ],
      "type": "VEC3"
    },
    {
      "bufferView": 3,
      "byteOffset": 37992,
      "componentType": 5126,
      "count": 224,
      "max": [
        0.8677225112915039,
        0.998741626739502,
        0.9517197012901306
      ],
      "min": [
        -0.8677200675010681,
        -0.9943175315856934,
        -0.9034439921379089
      ],
      "type": "VEC3"
    },
    {
      "bufferView": 2,
      "byteOffset": 11768,
      "componentType": 5126,
      "count": 224,
      "max": [
        0.8302879333496094,
        0.6692303419113159
      ],
      "min": [
        0.0,
        0.0
      ],
      "type": "VEC2"
    },
    {
      "bufferView": 1,
      "byteOffset": 23400,
      "componentType": 5125,
      "count": 612,
      "type": "SCALAR"
    },
    {
      "bufferView": 3,
      "byteOffset": 40680,
      "componentType": 5126,
      "count": 1679,
      "max": [
        2.4651451110839844,
        5.914843559265137,
        0.28042927384376526
      ],
      "min": [
        -2.4651451110839844,
        0.012124061584472656,
        -2.6781365871429443
      ],
      "type": "VEC3"
    },
    {
      "bufferView": 3,
      "byteOffset": 60828,
      "componentType": 5126,
      "count": 1679,
      "max": [
        0.9999833106994629,
        0.9998390674591064,
        0.9999903440475464
      ],
      "min": [
        -0.9999833106994629,
        -1.0,
        -0.9999787211418152
      ],
      "type": "VEC3"
    },
    {
      "bufferView": 2,
      "byteOffset": 13560,
      "componentType": 5126,
      "count": 1679,
      "max": [
        0.9923244714736938,
        0.986267626285553
      ],
      "min": [
        0.007851071655750275,
        0.00937826931476593
      ],
      "type": "VEC2"
    },
    {
      "bufferView": 1,
      "byteOffset": 25848,
      "componentType": 5125,
      "count": 7107,
      "type": "SCALAR"
    },
    {
      "bufferView": 3,
      "byteOffset": 80976,
      "componentType": 5126,
      "count": 166,
      "max": [
        0.30152007937431335,
        5.4232587814331055,
        0.6219964027404785
      ],
      "min": [
        -0.618735134601593,
        4.73716402053833,
        -0.39056453108787537
      ],
      "type": "VEC3"
    },
    {
      "bufferView": 3,
      "byteOffset": 82968,
      "componentType": 5126,
      "count": 166,
      "max": [
        0.9504463076591492,
        0.9867076277732849,
        0.9538836479187012
      ],
      "min": [
        -0.942010223865509,
        -0.9974608421325684,
        -0.9776576161384583
      ],
      "type": "VEC3"
    },
    {
      "bufferView": 2,
      "byteOffset": 26992,
      "componentType": 5126,
      "count": 166,
      "max": [
        0.9847344160079956,
        0.9842998385429382
      ],
      "min": [
        0.014042258262634277,
        0.02904301881790161
      ],
      "type": "VEC2"
    },
    {
      "bufferView": 1,
      "byteOffset": 54276,
      "componentType": 5125,
      "count": 780,
      "type": "SCALAR"
    },
    {
      "bufferView": 5,
      "componentType": 5126,
      "count": 88,
      "max": [
        99.99998474121094,
        0.9660042524337769,
        0.6145830154418945,
        0.0,
        0.9765034317970276,
        100.0,
        0.9997853636741638,
        0.0,
        0.9993863701820374,
        0.9918583035469055,
        99.99999237060547,
        0.0,
        3.9362165927886963,
        2.3671929836273193,
        4.1545023918151855,
        1.0
      ],
      "min": [
        -0.9993896484375,
        -0.966004490852356,
        -0.6145867109298706,
        0.0,
        -0.9765018224716187,
        -0.9910749197006226,
        -0.9448251724243164,
        0.0,
        -0.9993863701820374,
        -0.9998250007629395,
        -0.991075336933136,
        0.0,
        -3.9362165927886963,
        -4.2689290046691895,
        -3.8375513553619385,
        1.0
      ],
      "type": "MAT4"
    },
    {
      "bufferView": 0,
      "componentType": 5123,
      "count": 82,
      "type": "VEC4"
    },
    {
      "bufferView": 4,
      "componentType": 5126,
      "count": 82,
      "max": [
        1.0,
        0.0,
        0.0,
        0.0
      ],
      "min": [
        1.0,
        0.0,
        0.0,
        0.0
      ],
      "type": "VEC4"
    },
    {
      "bufferView": 0,
      "byteOffset": 656,
      "componentType": 5123,
      "count": 1389,
      "type": "VEC4"
    },
    {
      "bufferView": 4,
      "byteOffset": 1312,
      "componentType": 5126,
      "count": 1389,
      "max": [
        1.0,
        0.5,
        0.25548404455184937,
        0.18243379890918732
      ],
      "min": [
        0.33579057455062866,
        0.0,
        0.0,
        0.0
      ],
      "type": "VEC4"
    },
    {
      "bufferView": 0,
      "byteOffset": 11768,
      "componentType": 5123,
      "count": 224,
      "type": "VEC4"
    },
    {
      "bufferView": 4,
      "byteOffset": 23536,
      "componentType": 5126,
      "count": 224,
      "max": [
        1.0,
        0.4044009745121002,
        0.21028782427310944,
        0.08758660405874252
      ],
      "min": [
        0.45706093311309814,
        0.0,
        0.0,
        0.0
      ],
      "type": "VEC4"
    },
    {
      "bufferView": 0,
      "byteOffset": 13560,
      "componentType": 5123,
      "count": 1679,
      "type": "VEC4"
    },
    {
      "bufferView": 4,
      "byteOffset": 27120,
      "componentType": 5126,
      "count": 1679,
      "max": [
        1.0,
        0.5,
        0.2959624230861664,
        0.2337401807308197
      ],
      "min": [
        0.2753663659095764,
        0.0,
        0.0,
        0.0
      ],
      "type": "VEC4"
    },
    {
      "bufferView": 0,
      "byteOffset": 26992,
      "componentType": 5123,
      "count": 166,
      "type": "VEC4"
    },
    {
      "bufferView": 4,
      "byteOffset": 53984,
      "componentType": 5126,
      "count": 166,
      "max": [
        1.0,
        0.0,
        0.0,
        0.0
      ],
      "min": [
        1.0,
        0.0,
        0.0,
        0.0
      ],
      "type": "VEC4"
    }
  ],
  "asset": {
    "extras": {
      "author": "GR.blend (https://sketchfab.com/johnmodels)",
      "license": "CC-BY-4.0 (http://creativecommons.org/licenses/by/4.0/)",
      "source": "https://sketchfab.com/3d-models/raymond-from-animal-crossing-1187ef32fe0345dc948d7d0d33e26100",
      "title": "Raymond from animal crossing"
    },
    "generator": "Sketchfab-12.67.0",
    "version": "2.0"
  },
  "bufferViews": [
    {
      "buffer": 0,
      "byteLength": 28320,
      "byteStride": 8,
      "name": "shortBufferViews",
      "target": 34962
    },
    {
      "buffer": 0,
      "byteLength": 57396,
      "byteOffset": 28320,
      "name": "floatBufferViews",
      "target": 34963
    },
    {
      "buffer": 0,
      "byteLength": 28320,
      "byteOffset": 85716,
      "byteStride": 8,
      "name": "floatBufferViews",
      "target": 34962
    },
    {
      "buffer": 0,
      "byteLength": 84960,
      "byteOffset": 114036,
      "byteStride": 12,
      "name": "floatBufferViews",
      "target": 34962
    },
    {
      "buffer": 0,
      "byteLength": 56640,
      "byteOffset": 198996,
      "byteStride": 16,
      "name": "floatBufferViews",
      "target": 34962
    },
    {
      "buffer": 0,
      "byteLength": 5632,
      "byteOffset": 255636,
      "name": "floatBufferViews"
    }
  ],
  "buffers": [
    {
      "byteLength": 261268,
      "uri": "scene.bin"
    }
  ],
  "extensionsUsed": [
    "KHR_materials_unlit"
  ],
  "images": [
    {
      "uri": "textures/material_baseColor.png"
    },
    {
      "uri": "textures/material_3_baseColor.png"
    },
    {
      "uri": "textures/hair_baseColor.png"
    }
  ],
  "materials": [
    {
      "doubleSided": true,
      "extensions": {
        "KHR_materials_unlit": {}
      },
      "name": "WHITE",
      "pbrMetallicRoughness": {
        "baseColorFactor": [
          0.8,
          0.8,
          0.8,
          1.0
        ],
        "metallicFactor": 0.0
      }
    },
    {
      "doubleSided": true,
      "extensions": {
        "KHR_materials_unlit": {}
      },
      "name": "material",
      "pbrMetallicRoughness": {
        "baseColorTexture": {
          "index": 0
        },
        "metallicFactor": 0.0
      }
    },
    {
      "doubleSided": true,
      "extensions": {
        "KHR_materials_unlit": {}
      },
      "name": "BLACK",
      "pbrMetallicRoughness": {
        "baseColorFactor": [
          0.0,
          0.0,
          0.0,
          1.0
        ],
        "metallicFactor": 0.0
      }
    },
    {
      "doubleSided": true,
      "extensions": {
        "KHR_materials_unlit": {}
      },
      "name": "material_3",
      "pbrMetallicRoughness": {
        "baseColorTexture": {
          "index": 1
        },
        "metallicFactor": 0.0
      }
    },
    {
      "doubleSided": true,
      "extensions": {
        "KHR_materials_unlit": {}
      },
      "name": "hair",
      "pbrMetallicRoughness": {
        "baseColorTexture": {
          "index": 2
        },
        "metallicFactor": 0.0
      }
    }
  ],
  "meshes": [
    {
      "name": "0",
      "primitives": [
        {
          "attributes": {
            "JOINTS_0": 21,
            "NORMAL": 1,
            "POSITION": 0,
            "TEXCOORD_0": 2,
            "WEIGHTS_0": 22
          },
          "indices": 3,
          "material": 0,
          "mode": 4
        }
      ]
    },
    {
      "name": "1",
      "primitives": [
        {
          "attributes": {
            "JOINTS_0": 23,
            "NORMAL": 5,
            "POSITION": 4,
            "TEXCOORD_0": 6,
            "WEIGHTS_0": 24
          },
          "indices": 7,
          "material": 1,
          "mode": 4
        }
      ]
    },
    {
      "name": "2",
      "primitives": [
        {
          "attributes": {
            "JOINTS_0": 25,
            "NORMAL": 9,
            "POSITION": 8,
            "TEXCOORD_0": 10,
            "WEIGHTS_0": 26
          },
          "indices": 11,
          "material": 2,
          "mode": 4
        }
      ]
    },
    {
      "name": "3",
      "primitives": [
        {
          "attributes": {
            "JOINTS_0": 27,
            "NORMAL": 13,
            "POSITION": 12,
            "TEXCOORD_0": 14,
            "WEIGHTS_0": 28
          },
          "indices": 15,
          "material": 3,
          "mode": 4
        }
      ]
    },
    {
      "name": "Cube_hair_0",
      "primitives": [
        {
          "attributes": {
            "JOINTS_0": 29,
            "NORMAL": 17,
            "POSITION": 16,
            "TEXCOORD_0": 18,
            "WEIGHTS_0": 30
          },
          "indices": 19,
          "material": 4,
          "mode": 4
        }
      ]
    }
  ],
  "nodes": [
    {
      "children": [
        1
      ],
      "matrix": [
        1.0,
        0.0,
        0.0,
        0.0,
        0.0,
        2.220446049250313e-16,
        -1.0,
        0.0,
        0.0,
        1.0,
        2.220446049250313e-16,
        0.0,
        0.0,
        0.0,
        0.0,
        1.0
      ],
      "name": "Sketchfab_model"
    },
    {
      "children": [
        2
      ],
      "matrix": [
        1.0,
        0.0,
        0.0,
        0.0,
        0.0,
        0.0,
        1.0,
        0.0,
        0.0,
        -1.0,
        0.0,
        0.0,
        0.0,
        0.0,
        0.0,
        1.0
      ],
      "name": "66eb33fd64804c7b82e7d1ab54c07c9f.fbx"
    },
    {
      "children": [
        3,
        6,
        8
      ],
      "name": "RootNode"
    },
    {
      "children": [
        4
      ],
      "matrix": [
        -29.08647719990347,
        -5.518906457566863,
        -95.51711910171437,
        0.0,
        56.63930913109449,
        79.46723428563203,
        -21.83912397841966,
        0.0,
        77.11008775993375,
        -60.45246356562044,
        -19.98834696773717,
        0.0,
        407.6245422363281,
        590.38623046875,
        -100.54539489746094,
        1.0
      ],
      "name": "Light"
    },
    {
      "children": [
        5
      ],
      "matrix": [
        1.0,
        0.0,
        0.0,
        0.0,
        0.0,
        2.220446049250313e-16,
        1.0,
        0.0,
        0.0,
        -1.0,
        2.220446049250313e-16,
        0.0,
        0.0,
        0.0,
        0.0,
        1.0
      ],
      "name": "Object_4"
    },
    {
      "name": "Object_5"
    },
    {
      "children": [
        7
      ],
      "matrix": [
        -65.15583280329096,
        -44.52713576570858,
        -61.41703047373549,
        0.0,
        -32.40134137821245,
        89.53957451233616,
        -30.542088974418615,
        0.0,
        68.59205472129975,
        -1.0718647115348782e-05,
        -72.7676336239627,
        0.0,
        632.4759521484375,
        823.2316284179688,
        564.9244995117188,
        1.0
      ],
      "name": "Camera"
    },
    {
      "name": "Object_7"
    },
    {
      "children": [
        9
      ],
      "matrix": [
        100.0,
        0.0,
        0.0,
        0.0,
        0.0,
        -1.629206793918314e-05,
        -99.99999999999868,
        0.0,
        0.0,
        99.99999999999868,
        -1.629206793918314e-05,
        0.0,
        0.0,
        0.0,
        0.0,
        1.0
      ],
      "name": "metarig"
    },
    {
      "children": [
        10,
        12,
        13,
        14,
        15,
        17,
        11,
        16
      ],
      "name": "Object_9"
    },
    {
      "children": [
        18
      ],
      "name": "_rootJoint"
    },
    {
      "matrix": [
        99.9999875903672,
        1.0776956704816598e-07,
        3.178117220781207e-09,
        0.0,
        3.178117822440082e-09,
        -1.0876799156613801e-07,
        -100.00000283335457,
        0.0,
        -1.0776957120635861e-07,
        99.99999145198508,
        -1.087679791902764e-07,
        0.0,
        -9.65896754683516e-09,
        3.6432287853216394e-08,
        -2.776453953856617e-06,
        1.0
      ],
      "name": "Object_11"
    },
    {
      "mesh": 0,
      "name": "Object_12",
      "skin": 0
    },
    {
      "mesh": 1,
      "name": "Object_13",
      "skin": 0
    },
    {
      "mesh": 2,
      "name": "Object_14",
      "skin": 0
    },
    {
      "mesh": 3,
      "name": "Object_15",
      "skin": 0
    },
    {
      "matrix": [
        99.9999875903672,
        1.0776956704816598e-07,
        3.178117220781207e-09,
        0.0,
        3.178117822440082e-09,
        -1.0876799156613801e-07,
        -100.00000283335457,
        0.0,
        -1.0776957120635861e-07,
        99.99999145198508,
        -1.087679791902764e-07,
        0.0,
        -9.65896754683516e-09,
        3.6432287853216394e-08,
        -2.776453953856617e-06,
        1.0
      ],
      "name": "Object_16"
    },
    {
      "mesh": 4,
      "name": "Object_17",
      "skin": 0
    },
    {
      "children": [
        19,
        21,
        23,
        25,
        27,
        29,
        31,
        33,
        35
      ],
      "name": "mover_01",
      "rotation": [
        -0.6934875249862671,
        -0.004482896067202091,
        0.7204417586326599,
        0.0043145339004695415
      ],
      "scale": [
        0.9999999403953552,
        0.9999999403953552,
        0.9999681711196899
      ],
      "translation": [
        -7.248581722568711e-17,
        0.3871355652809143,
        0.03473439812660217
      ]
    },
    {
      "children": [
        20
      ],
      "name": "upper_armT.R_02",
      "rotation": [
        0.14837327599525452,
        0.0006877927226014435,
        0.9889118671417236,
        -0.006184000056236982
      ],
      "scale": [
        0.9998972415924072,
        1.0,
        0.9999998211860657
      ],
      "translation": [
        -3.689181327819824,
        -0.6610237956047058,
        1.196892499923706
      ]
    },
    {
      "name": "upper_armT.R_end_067",
      "rotation": [
        -4.7392530634789616e-39,
        2.984065309441378e-17,
        1.5881867761018131e-22,
        1.0
      ],
      "translation": [
        4.440892098500626e-16,
        0.4264523983001709,
        -4.163336342344337e-17
      ]
    },
    {
      "children": [
        22
      ],
      "name": "upper_armT.L_03",
      "rotation": [
        0.9938480854034424,
        0.00615345872938633,
        0.11057720333337784,
        -0.0009233092423528433
      ],
      "scale": [
        1.000072956085205,
        0.9999998807907104,
        1.0000001192092896
      ],
      "translation": [
        -3.7696280479431152,
        -0.6610245108604431,
        -0.912401020526886
      ]
    },
    {
      "name": "upper_armT.L_end_068",
      "rotation": [
        -5.293955920339377e-23,
        2.1786751157648348e-17,
        -2.117582368135751e-22,
        1.0
      ],
      "translation": [
        0.0,
        0.4264523983001709,
        -6.938893903907228e-17
      ]
    },
    {
      "children": [
        24
      ],
      "name": "handctrl.R_04",
      "rotation": [
        -0.6934894919395447,
        -0.004482831805944443,
        0.7204399704933167,
        -0.004314684774726629
      ],
      "scale": [
        1.0000724792480469,
        0.9999999403953552,
        1.0000001192092896
      ],
      "translation": [
        -3.5592758655548096,
        0.23494170606136322,
        1.735021948814392
      ]
    },
    {
      "name": "handctrl.R_end_069",
      "rotation": [
        0.0,
        -4.251320102739449e-22,
        0.0,
        1.0
      ],
      "translation": [
        -2.220446049250313e-16,
        0.4264523983001709,
        0.0
      ]
    },
    {
      "children": [
        26
      ],
      "name": "handctrl.L_05",
      "rotation": [
        -0.6934894919395447,
        -0.004482831805944443,
        0.7204399704933167,
        -0.004314684774726629
      ],
      "scale": [
        1.0000724792480469,
        0.9999999403953552,
        1.0000001192092896
      ],
      "translation": [
        -3.6810879707336426,
        0.23494035005569458,
        -1.4588623046875
      ]
    },
    {
      "name": "handctrl.L_end_070",
      "rotation": [
        0.0,
        -4.251320102739449e-22,
        0.0,
        1.0
      ],
      "translation": [
        -2.220446049250313e-16,
        0.4264523983001709,
        4.440892098500626e-16
      ]
    },
    {
      "children": [
        28
      ],
      "name": "shinctrl.L_06",
      "rotation": [
        -0.6935953497886658,
        -0.004483032040297985,
        0.7203380465507507,
        -0.004321308806538582
      ],
      "scale": [
        0.9984320998191833,
        0.9999997615814209,
        0.9999976754188538
      ],
      "translation": [
        -0.18017633259296417,
        0.2620184123516083,
        -0.2636508643627167
      ]
    },
    {
      "name": "shinctrl.L_end_071",
      "rotation": [
        -8.470329472543003e-22,
        3.134180878614886e-20,
        2.654759940663366e-41,
        1.0
      ],
      "translation": [
        5.551115123125783e-17,
        0.5271604657173157,
        0.0
      ]
    },
    {
      "children": [
        30
      ],
      "name": "shinctrl.R_07",
      "rotation": [
        -0.6933384537696838,
        -0.0044815125875175,
        0.7205851674079895,
        -0.0043229227885603905
      ],
      "scale": [
        0.9984321594238281,
        0.9999997615814209,
        0.9999977946281433
      ],
      "translation": [
        -0.15957120060920715,
        0.2620186507701874,
        0.2766093611717224
      ]
    },
    {
      "name": "shinctrl.R_end_072",
      "rotation": [
        8.470329472543003e-22,
        -1.7027629231677715e-20,
        -8.470329472543003e-22,
        1.0
      ],
      "translation": [
        0.0,
        0.5271604657173157,
        0.0
      ]
    },
    {
      "children": [
        32
      ],
      "name": "shinT.L_08",
      "rotation": [
        0.47776636481285095,
        0.5220945477485657,
        -0.49615785479545593,
        0.5029751062393188
      ],
      "scale": [
        0.9999998807907104,
        1.0,
        1.0
      ],
      "translation": [
        -1.4267176389694214,
        1.3171621561050415,
        -0.1993297040462494
      ]
    },
    {
      "name": "shinT.L_end_073",
      "rotation": [
        0.0,
        -0.0,
        -3.8116482626443515e-20,
        1.0
      ],
      "translation": [
        -5.551115123125783e-17,
        0.750857949256897,
        0.0
      ]
    },
    {
      "children": [
        34
      ],
      "name": "shinT.R_09",
      "rotation": [
        0.4775879383087158,
        0.5225092768669128,
        -0.4963294267654419,
        0.5025444626808167
      ],
      "scale": [
        1.0,
        1.0000001192092896,
        1.0000001192092896
      ],
      "translation": [
        -1.4073903560638428,
        1.3171623945236206,
        0.3074272871017456
      ]
    },
    {
      "name": "shinT.R_end_074",
      "rotation": [
        2.5254761443447583e-40,
        2.710505431213761e-20,
        -9.317362419797304e-21,
        1.0
      ],
      "translation": [
        0.0,
        0.750857949256897,
        0.0
      ]
    },
    {
      "children": [
        36
      ],
      "name": "hips_010",
      "rotation": [
        -0.030238134786486626,
        1.1809476063717739e-06,
        -0.7928250432014465,
        0.6086986660957336
      ],
      "scale": [
        1.0,
        1.0000001192092896,
        1.0
      ],
      "translation": [
        -2.2812130451202393,
        0.31591689586639404,
        0.08700928092002869
      ]
    },
    {
      "children": [
        37,
        42,
        47,
        100
      ],
      "name": "spine_011",
      "rotation": [
        -0.6935014724731445,
        -1.3986506530727638e-07,
        0.7204551696777344,
        -2.3435795526438596e-08
      ],
      "scale": [
        0.9999999403953552,
        1.0,
        1.0000001192092896
      ],
      "translation": [
        1.48019898560392e-08,
        0.34925395250320435,
        -1.6690129278629229e-09
      ]
    },
    {
      "children": [
        38
      ],
      "name": "thigh.L_012",
      "rotation": [
        0.9744391441345215,
        -0.0241740383207798,
        0.002326150191947818,
        0.22333507239818573
      ],
      "scale": [
        1.0000004768371582,
        0.9999993443489075,
        0.9999986290931702
      ],
      "translation": [
        0.30645987391471863,
        0.083893783390522,
        0.015179954469203949
      ]
    },
    {
      "children": [
        39
      ],
      "name": "shin.L_013",
      "rotation": [
        0.15428559482097626,
        -0.0008430224261246622,
        -0.02400173805654049,
        0.9877343773841858
      ],
      "scale": [
        1.0,
        1.0000001192092896,
        1.000000238418579
      ],
      "translation": [
        -5.124456947669387e-08,
        0.7358607649803162,
        -8.265487849712372e-09
      ]
    },
    {
      "children": [
        40
      ],
      "name": "foot.L_014",
      "rotation": [
        -0.48370474576950073,
        0.003290017833933234,
        -8.027224794204812e-06,
        0.8752250671386719
      ],
      "scale": [
        0.9999684691429138,
        0.9999997615814209,
        1.0
      ],
      "translation": [
        1.8426362657919526e-08,
        1.1390546560287476,
        -1.4217221178114414e-08
      ]
    },
    {
      "children": [
        41
      ],
      "name": "toe.L_015",
      "rotation": [
        -0.015598114579916,
        0.9593535661697388,
        -0.2817543148994446,
        0.003490951843559742
      ],
      "scale": [
        0.9999999403953552,
        1.0,
        1.0
      ],
      "translation": [
        4.946195986121893e-08,
        0.2037716805934906,
        -1.1408701539039612e-08
      ]
    },
    {
      "name": "toe.L_end_075",
      "rotation": [
        4.513898307157584e-36,
        -1.3010426069826053e-18,
        3.469446951953614e-18,
        1.0
      ],
      "translation": [
        5.551115123125783e-17,
        0.21571849286556244,
        0.0
      ]
    },
    {
      "children": [
        43
      ],
      "name": "thigh.R_016",
      "rotation": [
        0.9744390845298767,
        0.024168366566300392,
        -0.002504867734387517,
        0.22333411872386932
      ],
      "scale": [
        0.9999998807907104,
        1.0000001192092896,
        1.0000001192092896
      ],
      "translation": [
        -0.30645987391471863,
        0.08389496058225632,
        0.015180632472038269
      ]
    },
    {
      "children": [
        44
      ],
      "name": "shin.R_017",
      "rotation": [
        0.15428578853607178,
        0.0008430309244431555,
        0.02400175854563713,
        0.987734317779541
      ],
      "scale": [
        1.0000003576278687,
        0.9999997019767761,
        1.0
      ],
      "translation": [
        1.6043486539274454e-08,
        0.7358611226081848,
        5.0873495638370514e-08
      ]
    },
    {
      "children": [
        45
      ],
      "name": "foot.R_018",
      "rotation": [
        -0.4837018549442291,
        -0.003125277580693364,
        7.442521018674597e-05,
        0.8752272725105286
      ],
      "scale": [
        0.999968409538269,
        1.0000001192092896,
        1.0000001192092896
      ],
      "translation": [
        5.68070390727371e-09,
        1.1390550136566162,
        -1.3483486327459104e-08
      ]
    },
    {
      "children": [
        46
      ],
      "name": "toe.R_019",
      "rotation": [
        0.015598123893141747,
        0.9593535661697388,
        -0.2817543148994446,
        -0.003490954637527466
      ],
      "scale": [
        0.9999999403953552,
        0.9999999403953552,
        1.0
      ],
      "translation": [
        -4.96947905048728e-08,
        0.20377162098884583,
        2.1187588572502136e-08
      ]
    },
    {
      "name": "toe.R_end_076",
      "rotation": [
        0.0,
        -6.505213034913027e-19,
        0.0,
        1.0
      ],
      "translation": [
        0.0,
        0.21571849286556244,
        0.0
      ]
    },
    {
      "children": [
        48
      ],
      "name": "spiine1_020",
      "rotation": [
        -0.11886778473854065,
        7.395864258796792e-07,
        1.2449062580799364e-07,
        0.9929102063179016
      ],
      "scale": [
        1.0,
        0.9999999403953552,
        0.9999999403953552
      ],
      "translation": [
        1.1013412404281553e-13,
        0.34925377368927,
        -4.829470157119431e-14
      ]
    },
    {
      "children": [
        49,
        52,
        76
      ],
      "name": "spine2_021",
      "rotation": [
        -0.05212448909878731,
        2.3659818895738205e-11,
        -1.2426621509575853e-08,
        0.9986405968666077
      ],
      "scale": [
        1.0,
        1.0,
        0.9999999403953552
      ],
      "translation": [
        -7.327471962526033e-15,
        0.7796851396560669,
        -1.8626498121676605e-09
      ]
    },
    {
      "children": [
        50
      ],
      "name": "neck_022",
      "rotation": [
        0.10315219312906265,
        -6.325528208867004e-14,
        2.4594255521037667e-08,
        0.9946656823158264
      ],
      "scale": [
        0.9999682903289795,
        0.9999998807907104,
        0.9999999403953552
      ],
      "translation": [
        -6.800116025829084e-15,
        1.0394216775894165,
        -1.6486811915683575e-14
      ]
    },
    {
      "children": [
        51
      ],
      "name": "head_023",
      "rotation": [
        -0.007591539062559605,
        1.192058789456496e-07,
        -2.715009550513514e-09,
        0.9999712109565735
      ],
      "scale": [
        1.0,
        0.9999999403953552,
        1.0
      ],
      "translation": [
        -2.6645352591003757e-15,
        0.18113520741462708,
        7.105427357601002e-15
      ]
    },
    {
      "name": "head_end_077",
      "rotation": [
        1.3877787807814457e-17,
        -1.0587911840678754e-22,
        -1.1911400820763599e-22,
        1.0
      ],
      "translation": [
        0.0,
        0.9922751784324646,
        -1.1102230246251565e-16
      ]
    },
    {
      "children": [
        53
      ],
      "name": "shoulder.L_024",
      "rotation": [
        0.6093401908874512,
        0.29606449604034424,
        0.6610451936721802,
        -0.3225981891155243
      ],
      "scale": [
        0.9999997615814209,
        0.9999802708625793,
        0.9999879598617554
      ],
      "translation": [
        0.1515328735113144,
        0.9458346962928772,
        -0.007905305363237858
      ]
    },
    {
      "children": [
        54
      ],
      "name": "upper_arm.L_025",
      "rotation": [
        0.08492250740528107,
        0.679507851600647,
        0.2170056253671646,
        0.6956765055656433
      ],
      "scale": [
        0.9999540448188782,
        1.0000470876693726,
        0.9999994039535522
      ],
      "translation": [
        -0.03290233016014099,
        0.3267829418182373,
        0.09547844529151917
      ]
    },
    {
      "children": [
        55
      ],
      "name": "forearm.L_026",
      "rotation": [
        0.14141008257865906,
        -0.011714418418705463,
        0.007076434791088104,
        0.9898566007614136
      ],
      "scale": [
        0.9999989867210388,
        1.0000087022781372,
        0.9999915361404419
      ],
      "translation": [
        1.6205012798309326e-07,
        0.6075630187988281,
        -1.4901161193847656e-08
      ]
    },
    {
      "children": [
        56
      ],
      "name": "hand bend.L_027",
      "rotation": [
        -0.05944875627756119,
        -0.7957698106765747,
        0.0400676503777504,
        0.6013408899307251
      ],
      "scale": [
        1.0,
        0.9999999403953552,
        0.9999998807907104
      ],
      "translation": [
        1.284060999751091e-07,
        0.5618053674697876,
        2.7755575615628914e-17
      ]
    },
    {
      "children": [
        57,
        66,
        71
      ],
      "name": "hand.L_028",
      "rotation": [
        -0.030595406889915466,
        0.8058131337165833,
        0.0414787232875824,
        0.5899225473403931
      ],
      "scale": [
        0.9999999403953552,
        0.9999997019767761,
        0.9999998807907104
      ],
      "translation": [
        -1.043081283569336e-07,
        0.2725040912628174,
        -7.450580152834618e-09
      ]
    },
    {
      "children": [
        58,
        62
      ],
      "name": "palm.01.L_029",
      "rotation": [
        0.1757338047027588,
        0.7625396251678467,
        0.1774994283914566,
        0.5967787504196167
      ],
      "scale": [
        0.9999998807907104,
        0.9999997615814209,
        0.9999998211860657
      ],
      "translation": [
        -1.0337680578231812e-07,
        0.21962697803974152,
        -7.450580596923828e-09
      ]
    },
    {
      "children": [
        59
      ],
      "name": "f_index.01.L_030",
      "rotation": [
        0.12569890916347504,
        -0.08174531161785126,
        -0.21979323029518127,
        0.9639546871185303
      ],
      "scale": [
        0.9999999403953552,
        1.0,
        1.0000001192092896
      ],
      "translation": [
        -6.705522537231445e-08,
        0.18661373853683472,
        1.4901161193847656e-07
      ]
    },
    {
      "children": [
        60
      ],
      "name": "f_index.02.L_00",
      "rotation": [
        0.041879527270793915,
        -0.010681075975298882,
        -0.0025317028630524874,
        0.9990623593330383
      ],
      "scale": [
        0.9999998211860657,
        0.9999999403953552,
        1.0
      ],
      "translation": [
        5.587935447692871e-08,
        0.09535609185695648,
        7.441267371177673e-07
      ]
    },
    {
      "children": [
        61
      ],
      "name": "f_index.03.L_031",
      "rotation": [
        0.006104073487222195,
        -0.025249812752008438,
        0.019217807799577713,
        0.9994778037071228
      ],
      "scale": [
        1.0,
        0.9999999403953552,
        0.9999999403953552
      ],
      "translation": [
        1.862645149230957e-08,
        0.07258844375610352,
        -1.8067657947540283e-07
      ]
    },
    {
      "name": "f_index.03.L_end_078",
      "rotation": [
        3.469446951953614e-17,
        0.0,
        0.0,
        1.0
      ],
      "translation": [
        -5.551115123125783e-17,
        0.08515481650829315,
        0.0
      ]
    },
    {
      "children": [
        63
      ],
      "name": "thumb.01.L_032",
      "rotation": [
        0.19905661046504974,
        -0.04707978665828705,
        0.6289240717887878,
        0.7500762939453125
      ],
      "scale": [
        1.0000001192092896,
        1.0,
        1.0000001192092896
      ],
      "translation": [
        -8.195638656616211e-08,
        8.195638656616211e-08,
        1.4528632164001465e-07
      ]
    },
    {
      "children": [
        64
      ],
      "name": "thumb.02.L_033",
      "rotation": [
        0.22167961299419403,
        0.44070568680763245,
        -0.40370386838912964,
        0.7704932689666748
      ],
      "scale": [
        1.0,
        0.9999999403953552,
        0.9999998807907104
      ],
      "translation": [
        2.9942020773887634e-07,
        0.16150504350662231,
        1.6624107956886292e-07
      ]
    },
    {
      "children": [
        65
      ],
      "name": "thumb.03.L_034",
      "rotation": [
        0.17478825151920319,
        0.029041128233075142,
        -0.07926158607006073,
        0.9809807538986206
      ],
      "scale": [
        1.0,
        0.9999998807907104,
        0.9999999403953552
      ],
      "translation": [
        9.220093488693237e-08,
        0.09697863459587097,
        -5.21540641784668e-08
      ]
    },
    {
      "name": "thumb.03.L_end_079",
      "rotation": [
        1.2037062152420224e-34,
        6.938893903907228e-18,
        -1.734723475976807e-17,
        1.0
      ],
      "translation": [
        4.440892098500626e-16,
        0.15930132567882538,
        5.551115123125783e-17
      ]
    },
    {
      "children": [
        67
      ],
      "name": "palm.02.L_035",
      "rotation": [
        -0.020846271887421608,
        0.7827200293540955,
        -0.07825823873281479,
        0.6170822381973267
      ],
      "scale": [
        0.9999998807907104,
        0.9999998807907104,
        1.0
      ],
      "translation": [
        -1.0337680578231812e-07,
        0.21962697803974152,
        -7.450580596923828e-09
      ]
    },
    {
      "children": [
        68
      ],
      "name": "f_middle.01.L_036",
      "rotation": [
        -0.015944471582770348,
        -0.10488191992044449,
        0.13432826101779938,
        0.9852418303489685
      ],
      "scale": [
        1.0,
        0.9999999403953552,
        0.9999999403953552
      ],
      "translation": [
        4.470348358154297e-08,
        0.16792893409729004,
        9.685754776000977e-08
      ]
    },
    {
      "children": [
        69
      ],
      "name": "f_middle.02.L_037",
      "rotation": [
        0.13803254067897797,
        -0.05611850321292877,
        -0.0231068953871727,
        0.9885666370391846
      ],
      "scale": [
        0.9999997615814209,
        0.9999998211860657,
        0.9999998807907104
      ],
      "translation": [
        -2.2351741790771484e-08,
        0.09619298577308655,
        -6.426125764846802e-08
      ]
    },
    {
      "children": [
        70
      ],
      "name": "f_middle.03.L_038",
      "rotation": [
        -0.013856327161192894,
        -0.016647107899188995,
        -0.02029767818748951,
        0.9995593428611755
      ],
      "scale": [
        1.0000001192092896,
        1.0,
        1.0
      ],
      "translation": [
        7.450580596923828e-09,
        0.08088897168636322,
        1.8812716007232666e-07
      ]
    },
    {
      "name": "f_middle.03.L_end_080",
      "rotation": [
        3.729655473350135e-17,
        1.293984181385174e-34,
        3.469446951953614e-18,
        1.0
      ],
      "translation": [
        2.7755575615628914e-17,
        0.07692959159612656,
        8.881784197001252e-16
      ]
    },
    {
      "children": [
        72
      ],
      "name": "palm.03.L_039",
      "rotation": [
        -0.17594900727272034,
        0.7399424314498901,
        -0.27441510558128357,
        0.588407576084137
      ],
      "scale": [
        0.9999998211860657,
        0.9999998807907104,
        0.9999998211860657
      ],
      "translation": [
        -1.0337680578231812e-07,
        0.21962697803974152,
        -7.450580596923828e-09
      ]
    },
    {
      "children": [
        73
      ],
      "name": "f_ring.01.L_040",
      "rotation": [
        0.02681008167564869,
        -0.09318872541189194,
        0.35886457562446594,
        0.9283390045166016
      ],
      "scale": [
        0.9999999403953552,
        1.0,
        0.9999998807907104
      ],
      "translation": [
        8.940696716308594e-08,
        0.18350249528884888,
        -3.986060619354248e-07
      ]
    },
    {
      "children": [
        74
      ],
      "name": "f_ring.02.L_041",
      "rotation": [
        -0.004568471573293209,
        -0.03435365855693817,
        0.002388957655057311,
        0.9993964433670044
      ],
      "scale": [
        0.9999998211860657,
        1.0,
        0.9999999403953552
      ],
      "translation": [
        3.725290298461914e-09,
        0.11004414409399033,
        -7.129274308681488e-07
      ]
    },
    {
      "children": [
        75
      ],
      "name": "f_ring.03.L_042",
      "rotation": [
        0.0418156161904335,
        -0.013313809409737587,
        0.032924115657806396,
        0.9984939694404602
      ],
      "scale": [
        1.0,
        0.9999999403953552,
        1.0
      ],
      "translation": [
        -2.2351741790771484e-08,
        0.07033637166023254,
        -7.264316082000732e-07
      ]
    },
    {
      "name": "f_ring.03.L_end_081",
      "rotation": [
        6.461844948013606e-17,
        -6.938893903907228e-18,
        4.4838056517765335e-34,
        1.0
      ],
      "translation": [
        0.0,
        0.09272351115942001,
        0.0
      ]
    },
    {
      "children": [
        77
      ],
      "name": "shoulder.R_043",
      "rotation": [
        -0.6093399524688721,
        0.2960652709007263,
        0.6610449552536011,
        0.32259848713874817
      ],
      "scale": [
        0.9999998211860657,
        0.9999803304672241,
        0.9999880790710449
      ],
      "translation": [
        -0.1515328735113144,
        0.9458354115486145,
        -0.007905206643044949
      ]
    },
    {
      "children": [
        78
      ],
      "name": "upper_arm.R_044",
      "rotation": [
        0.08455895632505417,
        -0.6814095377922058,
        -0.21752604842185974,
        0.6936953663825989
      ],
      "scale": [
        0.9999527931213379,
        1.0000481605529785,
        0.9999992251396179
      ],
      "translation": [
        0.03290229290723801,
        0.3267820179462433,
        0.09547789394855499
      ]
    },
    {
      "children": [
        79
      ],
      "name": "forearm.R_045",
      "rotation": [
        0.14141102135181427,
        0.01171473041176796,
        -0.0070765153504908085,
        0.9898563623428345
      ],
      "scale": [
        0.9999991059303284,
        1.000009298324585,
        0.999991238117218
      ],
      "translation": [
        2.7194619178771973e-07,
        0.6075621843338013,
        2.9802322387695313e-08
      ]
    },
    {
      "children": [
        80
      ],
      "name": "hand bend.R_046",
      "rotation": [
        -0.059448856860399246,
        0.7957697510719299,
        -0.04006766527891159,
        0.6013409495353699
      ],
      "scale": [
        0.9999999403953552,
        0.9999997615814209,
        0.9999999403953552
      ],
      "translation": [
        -1.6816193237900734e-07,
        0.5618048906326294,
        1.4901161193847656e-08
      ]
    },
    {
      "children": [
        81,
        90,
        95
      ],
      "name": "hand.R_047",
      "rotation": [
        -0.03059544414281845,
        -0.8058132529258728,
        -0.041478805243968964,
        0.5899223685264587
      ],
      "translation": [
        -3.725290298461914e-08,
        0.27250388264656067,
        -1.6205012798309326e-07
      ]
    },
    {
      "children": [
        82,
        86
      ],
      "name": "palm.01.R_048",
      "rotation": [
        0.17573392391204834,
        -0.7625393867492676,
        -0.1774997115135193,
        0.5967789888381958
      ],
      "scale": [
        1.0000001192092896,
        1.0000001192092896,
        1.0
      ],
      "translation": [
        -1.3317912817001343e-07,
        0.2196269929409027,
        -7.450580596923828e-09
      ]
    },
    {
      "children": [
        83
      ],
      "name": "f_index.01.R_049",
      "rotation": [
        0.1256992369890213,
        0.0817454606294632,
        0.21979348361492157,
        0.9639545679092407
      ],
      "scale": [
        0.9999999403953552,
        0.9999998807907104,
        0.9999998807907104
      ],
      "translation": [
        7.450580596923828e-09,
        0.18661347031593323,
        2.3283064365386963e-07
      ]
    },
    {
      "children": [
        84
      ],
      "name": "f_index.02.R_050",
      "rotation": [
        0.04187968745827675,
        0.010680886916816235,
        0.0025317268446087837,
        0.9990623593330383
      ],
      "scale": [
        0.9999998807907104,
        1.0,
        0.9999999403953552
      ],
      "translation": [
        1.6111880540847778e-07,
        0.09535624831914902,
        1.1175870895385742e-08
      ]
    },
    {
      "children": [
        85
      ],
      "name": "f_index.03.R_051",
      "rotation": [
        0.006104117725044489,
        0.025249818339943886,
        -0.019217848777770996,
        0.9994778037071228
      ],
      "translation": [
        -3.3527612686157227e-08,
        0.07258816808462143,
        3.641471266746521e-07
      ]
    },
    {
      "name": "f_index.03.R_end_082",
      "rotation": [
        -9.107298248878237e-18,
        1.2638915260041235e-34,
        -1.3877787807814457e-17,
        1.0
      ],
      "translation": [
        -5.551115123125783e-17,
        0.08515481650829315,
        0.0
      ]
    },
    {
      "children": [
        87
      ],
      "name": "thumb.01.R_052",
      "rotation": [
        0.19905798137187958,
        0.04708100110292435,
        -0.6289239525794983,
        0.7500759959220886
      ],
      "scale": [
        0.9999998807907104,
        1.0,
        0.9999999403953552
      ],
      "translation": [
        -1.4901161193847656e-08,
        8.195638656616211e-08,
        2.086162567138672e-07
      ]
    },
    {
      "children": [
        88
      ],
      "name": "thumb.02.R_053",
      "rotation": [
        0.221678227186203,
        -0.4407057762145996,
        0.40370407700538635,
        0.7704934477806091
      ],
      "scale": [
        0.9999998211860657,
        0.9999998211860657,
        0.9999998807907104
      ],
      "translation": [
        1.6129342839121819e-07,
        0.16150489449501038,
        -1.7136335372924805e-07
      ]
    },
    {
      "children": [
        89
      ],
      "name": "thumb.03.R_054",
      "rotation": [
        0.17478835582733154,
        -0.02904192917048931,
        0.07926210761070251,
        0.9809806942939758
      ],
      "scale": [
        1.0,
        0.9999999403953552,
        1.0
      ],
      "translation": [
        2.3283064365386963e-07,
        0.09697882831096649,
        -1.341104507446289e-07
      ]
    },
    {
      "name": "thumb.03.R_end_083",
      "rotation": [
        1.1555579666323415e-33,
        -2.0816681711721685e-17,
        5.551115123125783e-17,
        1.0
      ],
      "translation": [
        -4.440892098500626e-16,
        0.15930132567882538,
        0.0
      ]
    },
    {
      "children": [
        91
      ],
      "name": "palm.02.R_055",
      "rotation": [
        -0.02084626443684101,
        -0.7827197313308716,
        0.0782584398984909,
        0.6170825362205505
      ],
      "scale": [
        0.9999998807907104,
        1.0,
        1.0
      ],
      "translation": [
        -1.3317912817001343e-07,
        0.2196269929409027,
        -7.450580596923828e-09
      ]
    },
    {
      "children": [
        92
      ],
      "name": "f_middle.01.R_056",
      "rotation": [
        -0.015944527462124825,
        0.10488204658031464,
        -0.13432852923870087,
        0.9852418899536133
      ],
      "scale": [
        0.9999999403953552,
        0.9999999403953552,
        0.9999998807907104
      ],
      "translation": [
        1.341104507446289e-07,
        0.16792863607406616,
        5.848705768585205e-07
      ]
    },
    {
      "children": [
        93
      ],
      "name": "f_middle.02.R_057",
      "rotation": [
        0.13803306221961975,
        0.056118305772542953,
        0.02310694381594658,
        0.9885665774345398
      ],
      "scale": [
        0.9999999403953552,
        1.0,
        1.0
      ],
      "translation": [
        2.2351741790771484e-08,
        0.09619293361902237,
        2.0302832126617432e-07
      ]
    },
    {
      "children": [
        94
      ],
      "name": "f_middle.03.R_058",
      "rotation": [
        -0.013856347650289536,
        0.016646945849061012,
        0.020297732204198837,
        0.9995593428611755
      ],
      "scale": [
        0.9999999403953552,
        1.0,
        1.0
      ],
      "translation": [
        -1.4901161193847656e-08,
        0.08088872581720352,
        -1.1548399925231934e-07
      ]
    },
    {
      "name": "f_middle.03.R_end_084",
      "rotation": [
        6.461844948013606e-17,
        0.0,
        0.0,
        1.0
      ],
      "translation": [
        -2.7755575615628914e-17,
        0.07692959159612656,
        0.0
      ]
    },
    {
      "children": [
        96
      ],
      "name": "palm.03.R_059",
      "rotation": [
        -0.1759490817785263,
        -0.7399420142173767,
        0.2744155526161194,
        0.5884078741073608
      ],
      "scale": [
        1.0000001192092896,
        1.0000001192092896,
        1.0000001192092896
      ],
      "translation": [
        -1.3317912817001343e-07,
        0.2196269929409027,
        -7.450580596923828e-09
      ]
    },
    {
      "children": [
        97
      ],
      "name": "f_ring.01.R_060",
      "rotation": [
        0.02681022882461548,
        0.09318848699331284,
        -0.35886508226394653,
        0.9283389449119568
      ],
      "scale": [
        1.0,
        0.9999998211860657,
        0.9999998211860657
      ],
      "translation": [
        1.4901161193847656e-08,
        0.18350230157375336,
        1.7881393432617188e-07
      ]
    },
    {
      "children": [
        98
      ],
      "name": "f_ring.02.R_061",
      "rotation": [
        -0.004568531643599272,
        0.03435348719358444,
        -0.002388938330113888,
        0.9993964433670044
      ],
      "scale": [
        0.9999998807907104,
        1.0,
        0.9999999403953552
      ],
      "translation": [
        1.30385160446167e-08,
        0.11004392802715302,
        4.1048042476177216e-07
      ]
    },
    {
      "children": [
        99
      ],
      "name": "f_ring.03.R_062",
      "rotation": [
        0.041815731674432755,
        0.013313839212059975,
        -0.03292417526245117,
        0.9984939694404602
      ],
      "scale": [
        0.9999999403953552,
        0.9999998807907104,
        0.9999998807907104
      ],
      "translation": [
        -2.2351741790771484e-08,
        0.07033637166023254,
        5.699694156646729e-07
      ]
    },
    {
      "name": "f_ring.03.R_end_085",
      "rotation": [
        -2.6454533008646308e-17,
        -6.938893903907228e-18,
        -1.8356519782440842e-34,
        1.0
      ],
      "translation": [
        0.0,
        0.09272351115942001,
        0.0
      ]
    },
    {
      "children": [
        101
      ],
      "name": "tail1_063",
      "rotation": [
        -0.7122703790664673,
        0.000640232814475894,
        -0.004521794617176056,
        0.7018903493881226
      ],
      "scale": [
        1.0000001192092896,
        0.9999999403953552,
        0.9999998807907104
      ],
      "translation": [
        -4.3864955046046816e-07,
        0.309459388256073,
        -0.3679675757884979
      ]
    },
    {
      "children": [
        102
      ],
      "name": "tail2_064",
      "rotation": [
        0.033293720334768295,
        -0.005233024246990681,
        0.002488331403583288,
        0.999428927898407
      ],
      "scale": [
        1.0,
        0.9999999403953552,
        0.9999999403953552
      ],
      "translation": [
        6.984919309616089e-10,
        0.5063763856887817,
        -7.801827450748533e-08
      ]
    },
    {
      "children": [
        103
      ],
      "name": "tail3_065",
      "rotation": [
        -0.1532006859779358,
        0.0060363030061125755,
        5.9281825087964535e-05,
        0.9881767630577087
      ],
      "scale": [
        1.0000001192092896,
        1.0,
        1.0000001192092896
      ],
      "translation": [
        -6.984919309616089e-10,
        0.6806147694587708,
        -1.7944330465979874e-09
      ]
    },
    {
      "children": [
        104
      ],
      "name": "tail4_066",
      "rotation": [
        0.05621310696005821,
        2.3674203930568183e-07,
        0.0003048379730898887,
        0.9984187483787537
      ],
      "translation": [
        -4.656612873077393e-10,
        0.7016278505325317,
        -2.5391091185156256e-07
      ]
    },
    {
      "name": "tail4_end_086",
      "rotation": [
        -1.3877787807814457e-17,
        -1.0028870095490916e-18,
        1.0842021724855044e-19,
        1.0
      ],
      "translation": [
        3.469446951953614e-18,
        0.47148090600967407,
        -4.440892098500626e-16
      ]
    }
  ],
  "samplers": [
    {
      "magFilter": 9729,
      "minFilter": 9729,
      "wrapS": 10497,
      "wrapT": 10497
    }
  ],
  "scene": 0,
  "scenes": [
    {
      "name": "Sketchfab_Scene",
      "nodes": [
        0
      ]
    }
  ],
  "skins": [
    {
      "inverseBindMatrices": 20,
      "joints": [
        10,
        18,
        19,
        20,
        21,
        22,
        23,
        24,
        25,
        26,
        27,
        28,
        29,
        30,
        31,
        32,
        33,
        34,
        35,
        36,
        37,
        38,
        39,
        40,
        41,
        42,
        43,
        44,
        45,
        46,
        47,
        48,
        49,
        50,
        51,
        52,
        53,
        54,
        55,
        56,
        57,
        58,
        59,
        60,
        61,
        62,
        63,
        64,
        65,
        66,
        67,
        68,
        69,
        70,
        71,
        72,
        73,
        74,
        75,
        76,
        77,
        78,
        79,
        80,
        81,
        82,
        83,
        84,
        85,
        86,
        87,
        88,
        89,
        90,
        91,
        92,
        93,
        94,
        95,
        96,
        97,
        98,
        99,
        100,
        101,
        102,
        103,
        104
      ],
      "skeleton": 10
    }
  ],
  "textures": [
    {
      "sampler": 0,
      "source": 0
    },
    {
      "sampler": 0,
      "source": 1
    },
    {
      "sampler": 0,
      "source": 2
    }
  ]
}
