{
  "accessors": [
    {
      "bufferView": 2,
      "componentType": 5126,
      "count": 4227,
      "max": [
        11.558810234069824,
        26.94704246520996,
        11.590696334838867
      ],
      "min": [
        -11.558810234069824,
        -0.04607101157307625,
        -10.734126091003418
      ],
      "type": "VEC3"
    },
    {
      "bufferView": 2,
      "byteOffset": 50724,
      "componentType": 5126,
      "count": 4227,
      "max": [
        0.9989801049232483,
        0.9994264841079712,
        0.9999978542327881
      ],
      "min": [
        -0.9989801049232483,
        -0.9999970197677612,
        -0.9999872446060181
      ],
      "type": "VEC3"
    },
    {
      "bufferView": 3,
      "componentType": 5126,
      "count": 4227,
      "max": [
        1.0,
        0.9999260306358337,
        0.9999324083328247,
        1.0
      ],
      "min": [
        -1.0,
        -0.999981701374054,
        -0.9995835423469543,
        -1.0
      ],
      "type": "VEC4"
    },
    {
      "bufferView": 1,
      "componentType": 5126,
      "count": 4227,
      "max": [
        0.9934436082839966,
        0.998003363609314
      ],
      "min": [
        0.008600038476288319,
        0.00142259756103158
      ],
      "type": "VEC2"
    },
    {
      "bufferView": 1,
      "byteOffset": 33816,
      "componentType": 5126,
      "count": 4227,
      "max": [
        0.0,
        0.0
      ],
      "min": [
        0.0,
        0.0
      ],
      "type": "VEC2"
    },
    {
      "bufferView": 1,
      "byteOffset": 67632,
      "componentType": 5126,
      "count": 4227,
      "max": [
        0.9934436082839966,
        0.998003363609314
      ],
      "min": [
        0.008600038476288319,
        0.00142259756103158
      ],
      "type": "VEC2"
    },
    {
      "bufferView": 0,
      "componentType": 5125,
      "count": 20910,
      "type": "SCALAR"
    },
    {
      "bufferView": 2,
      "byteOffset": 101448,
      "componentType": 5126,
      "count": 456,
      "max": [
        7.77001953125,
        12.635869026184082,
        8.24171257019043
      ],
      "min": [
        -7.77001953125,
        11.456015586853027,
        -5.9303412437438965
      ],
      "type": "VEC3"
    },
    {
      "bufferView": 2,
      "byteOffset": 106920,
      "componentType": 5126,
      "count": 456,
      "max": [
        0.8831064105033875,
        0.9999948143959045,
        0.9023493528366089
      ],
      "min": [
        -0.8831063508987427,
        0.3837331533432007,
        -0.9234441518783569
      ],
      "type": "VEC3"
    },
    {
      "bufferView": 3,
      "byteOffset": 67632,
      "componentType": 5126,
      "count": 456,
      "max": [
        0.29333046078681946,
        0.9219866394996643,
        0.9999947547912598,
        1.0
      ],
      "min": [
        -0.2933861315250397,
        -0.9023494124412537,
        0.38312602043151855,
        1.0
      ],
      "type": "VEC4"
    },
    {
      "bufferView": 1,
      "byteOffset": 101448,
      "componentType": 5126,
      "count": 456,
      "max": [
        0.3716520071029663,
        0.3934064209461212
      ],
      "min": [
        0.008247469551861286,
        0.0024406854063272476
      ],
      "type": "VEC2"
    },
    {
      "bufferView": 1,
      "byteOffset": 105096,
      "componentType": 5126,
      "count": 456,
      "max": [
        0.0,
        0.0
      ],
      "min": [
        0.0,
        0.0
      ],
      "type": "VEC2"
    },
    {
      "bufferView": 1,
      "byteOffset": 108744,
      "componentType": 5126,
      "count": 456,
      "max": [
        0.3716520071029663,
        0.3934064209461212
      ],
      "min": [
        0.008247469551861286,
        0.0024406854063272476
      ],
      "type": "VEC2"
    },
    {
      "bufferView": 0,
      "byteOffset": 83640,
      "componentType": 5125,
      "count": 2496,
      "type": "SCALAR"
    }
  ],
  "asset": {
    "extras": {
      "author": "Dekania (https://sketchfab.com/dekania)",
      "license": "CC-BY-4.0 (http://creativecommons.org/licenses/by/4.0/)",
      "source": "https://sketchfab.com/3d-models/animal-crossing-froggy-chair-78dae21cdbd549609e735758f17596c0",
      "title": "Animal Crossing - Froggy Chair"
    },
    "generator": "Sketchfab-12.68.0",
    "version": "2.0"
  },
  "bufferViews": [
    {
      "buffer": 0,
      "byteLength": 93624,
      "name": "floatBufferViews",
      "target": 34963
    },
    {
      "buffer": 0,
      "byteLength": 112392,
      "byteOffset": 93624,
      "byteStride": 8,
      "name": "floatBufferViews",
      "target": 34962
    },
    {
      "buffer": 0,
      "byteLength": 112392,
      "byteOffset": 206016,
      "byteStride": 12,
      "name": "floatBufferViews",
      "target": 34962
    },
    {
      "buffer": 0,
      "byteLength": 74928,
      "byteOffset": 318408,
      "byteStride": 16,
      "name": "floatBufferViews",
      "target": 34962
    }
  ],
  "buffers": [
    {
      "byteLength": 393336,
      "uri": "scene.bin"
    }
  ],
  "images": [
    {
      "uri": "textures/Chair_baseColor.png"
    },
    {
      "uri": "textures/Chair_normal.png"
    },
    {
      "uri": "textures/Cushion_baseColor.png"
    },
    {
      "uri": "textures/Cushion_normal.png"
    }
  ],
  "materials": [
    {
      "doubleSided": true,
      "name": "Chair",
      "normalTexture": {
        "index": 1
      },
      "pbrMetallicRoughness": {
        "baseColorTexture": {
          "index": 0
        },
        "metallicFactor": 0.0,
        "roughnessFactor": 0.958809607
      }
    },
    {
      "doubleSided": true,
      "name": "Cushion",
      "normalTexture": {
        "index": 3
      },
      "pbrMetallicRoughness": {
        "baseColorTexture": {
          "index": 2
        },
        "metallicFactor": 0.0,
        "roughnessFactor": 0.8411218933
      }
    }
  ],
  "meshes": [
    {
      "name": "Chair_Chair_0",
      "primitives": [
        {
          "attributes": {
            "NORMAL": 1,
            "POSITION": 0,
            "TANGENT": 2,
            "TEXCOORD_0": 3,
            "TEXCOORD_1": 4,
            "TEXCOORD_2": 5
          },
          "indices": 6,
          "material": 0,
          "mode": 4
        }
      ]
    },
    {
      "name": "Chair_Cushion_0",
      "primitives": [
        {
          "attributes": {
            "NORMAL": 8,
            "POSITION": 7,
            "TANGENT": 9,
            "TEXCOORD_0": 10,
            "TEXCOORD_1": 11,
            "TEXCOORD_2": 12
          },
          "indices": 13,
          "material": 1,
          "mode": 4
        }
      ]
    }
  ],
  "nodes": [
    {
      "children": [
        1
      ],
      "matrix": [
        0.00026802014326676726,
        0.0,
        0.0,
        0.0,
        0.0,
        5.951242682361963e-20,
        -0.00026802014326676726,
        0.0,
        0.0,
        0.00026802014326676726,
        5.951242682361963e-20,
        0.0,
        0.0,
        0.0,
        0.0,
        1.0
      ],
      "name": "Sketchfab_model"
    },
    {
      "children": [
        2
      ],
      "matrix": [
        1.0,
        0.0,
        0.0,
        0.0,
        0.0,
        0.0,
        1.0,
        0.0,
        0.0,
        -1.0,
        0.0,
        0.0,
        0.0,
        0.0,
        0.0,
        1.0
      ],
      "name": "8db859f6607c4446aeb0b19186380be6.fbx"
    },
    {
      "children": [
        3
      ],
      "name": "RootNode"
    },
    {
      "children": [
        4,
        5
      ],
      "matrix": [
        100.0,
        0.0,
        0.0,
        0.0,
        0.0,
        99.99999999999866,
        1.6292067073209114e-05,
        0.0,
        0.0,
        -1.6292067073209114e-05,
        99.99999999999866,
        0.0,
        0.0,
        0.0,
        0.0,
        1.0
      ],
      "name": "Chair"
    },
    {
      "mesh": 0,
      "name": "Chair_Chair_0"
    },
    {
      "mesh": 1,
      "name": "Chair_Cushion_0"
    }
  ],
  "samplers": [
    {
      "magFilter": 9729,
      "minFilter": 9987,
      "wrapS": 10497,
      "wrapT": 10497
    }
  ],
  "scene": 0,
  "scenes": [
    {
      "name": "Sketchfab_Scene",
      "nodes": [
        0
      ]
    }
  ],
  "textures": [
    {
      "sampler": 0,
      "source": 0
    },
    {
      "sampler": 0,
      "source": 1
    },
    {
      "sampler": 0,
      "source": 2
    },
    {
      "sampler": 0,
      "source": 3
    }
  ]
}
