{
  "accessors": [
    {
      "bufferView": 3,
      "componentType": 5126,
      "count": 18,
      "max": [
        0.3740953207015991,
        2.7222394943237305,
        0.23149852454662323
      ],
      "min": [
        -0.3740953207015991,
        2.5424273014068604,
        -0.05282130837440491
      ],
      "type": "VEC3"
    },
    {
      "bufferView": 3,
      "byteOffset": 216,
      "componentType": 5126,
      "count": 18,
      "max": [
        0.8364288806915283,
        -0.01791347563266754,
        0.6573584675788879
      ],
      "min": [
        -0.8364291191101074,
        -0.0955626592040062,
        0.5477822422981262
      ],
      "type": "VEC3"
    },
    {
      "bufferView": 2,
      "componentType": 5126,
      "count": 18,
      "max": [
        0.6654435992240906,
        0.6957093477249146
      ],
      "min": [
        0.33377140760421753,
        0.34507519006729126
      ],
      "type": "VEC2"
    },
    {
      "bufferView": 1,
      "componentType": 5125,
      "count": 48,
      "type": "SCALAR"
    },
    {
      "bufferView": 3,
      "byteOffset": 432,
      "componentType": 5126,
      "count": 1015,
      "max": [
        0.7763890624046326,
        3.549583673477173,
        0.6379673480987549
      ],
      "min": [
        -0.7763890624046326,
        0.2547285854816437,
        -1.492455005645752
      ],
      "type": "VEC3"
    },
    {
      "bufferView": 3,
      "byteOffset": 12612,
      "componentType": 5126,
      "count": 1015,
      "max": [
        0.9995555281639099,
        0.9984338283538818,
        0.9925059080123901
      ],
      "min": [
        -0.9995555877685547,
        -0.9981572031974792,
        -0.9994446039199829
      ],
      "type": "VEC3"
    },
    {
      "bufferView": 2,
      "byteOffset": 144,
      "componentType": 5126,
      "count": 1015,
      "max": [
        0.9913230538368225,
        0.9950825572013855
      ],
      "min": [
        0.008865050040185452,
        0.004738488234579563
      ],
      "type": "VEC2"
    },
    {
      "bufferView": 1,
      "byteOffset": 192,
      "componentType": 5125,
      "count": 3774,
      "type": "SCALAR"
    },
    {
      "bufferView": 3,
      "byteOffset": 24792,
      "componentType": 5126,
      "count": 673,
      "max": [
        1.2555288076400757,
        2.201692819595337,
        0.2762446701526642
      ],
      "min": [
        -1.2555288076400757,
        0.009141947142779827,
        -0.6080716252326965
      ],
      "type": "VEC3"
    },
    {
      "bufferView": 3,
      "byteOffset": 32868,
      "componentType": 5126,
      "count": 673,
      "max": [
        0.9957324266433716,
        1.0,
        0.9935706853866577
      ],
      "min": [
        -0.9957324266433716,
        -1.0,
        -0.9999912977218628
      ],
      "type": "VEC3"
    },
    {
      "bufferView": 2,
      "byteOffset": 8264,
      "componentType": 5126,
      "count": 673,
      "max": [
        0.9926655292510986,
        0.9906005263328552
      ],
      "min": [
        0.009303709492087364,
        0.004673273302614689
      ],
      "type": "VEC2"
    },
    {
      "bufferView": 1,
      "byteOffset": 15288,
      "componentType": 5125,
      "count": 2376,
      "type": "SCALAR"
    },
    {
      "bufferView": 3,
      "byteOffset": 40944,
      "componentType": 5126,
      "count": 148,
      "max": [
        0.47864359617233276,
        3.238165855407715,
        0.2396480143070221
      ],
      "min": [
        -0.47864359617233276,
        2.9844772815704346,
        0.12329770624637604
      ],
      "type": "VEC3"
    },
    {
      "bufferView": 3,
      "byteOffset": 42720,
      "componentType": 5126,
      "count": 148,
      "max": [
        0.9805671572685242,
        0.9275182485580444,
        0.9334170818328857
      ],
      "min": [
        -0.9805671572685242,
        -0.9275230169296265,
        -0.37377798557281494
      ],
      "type": "VEC3"
    },
    {
      "bufferView": 2,
      "byteOffset": 13648,
      "componentType": 5126,
      "count": 148,
      "max": [
        0.9888733625411987,
        0.9934411644935608
      ],
      "min": [
        -0.0003383990842849016,
        0.009359508752822876
      ],
      "type": "VEC2"
    },
    {
      "bufferView": 1,
      "byteOffset": 24792,
      "componentType": 5125,
      "count": 444,
      "type": "SCALAR"
    },
    {
      "bufferView": 5,
      "componentType": 5126,
      "count": 30,
      "max": [
        100.0,
        0.9673596024513245,
        0.2896091639995575,
        0.0,
        0.976699709892273,
        100.00000762939453,
        0.996218204498291,
        0.0,
        0.986522912979126,
        0.9962174296379089,
        100.00000762939453,
        0.0,
        1.9942686557769775,
        1.072830319404602,
        2.312105655670166,
        1.0
      ],
      "min": [
        -1.0,
        -0.9673593640327454,
        -0.2896099388599396,
        0.0,
        -0.976699709892273,
        -0.9829409122467041,
        -0.9906721115112305,
        0.0,
        -0.9865228533744812,
        -0.98988276720047,
        -0.9838810563087463,
        0.0,
        -1.994268774986267,
        -1.7393980026245117,
        -2.0291507244110107,
        1.0
      ],
      "type": "MAT4"
    },
    {
      "bufferView": 0,
      "componentType": 5123,
      "count": 18,
      "type": "VEC4"
    },
    {
      "bufferView": 4,
      "componentType": 5126,
      "count": 18,
      "max": [
        1.0,
        0.0,
        0.0,
        0.0
      ],
      "min": [
        1.0,
        0.0,
        0.0,
        0.0
      ],
      "type": "VEC4"
    },
    {
      "bufferView": 0,
      "byteOffset": 144,
      "componentType": 5123,
      "count": 1015,
      "type": "VEC4"
    },
    {
      "bufferView": 4,
      "byteOffset": 288,
      "componentType": 5126,
      "count": 1015,
      "max": [
        1.0,
        0.5,
        0.3017593026161194,
        0.08517852425575256
      ],
      "min": [
        0.3941841423511505,
        0.0,
        0.0,
        0.0
      ],
      "type": "VEC4"
    },
    {
      "bufferView": 0,
      "byteOffset": 8264,
      "componentType": 5123,
      "count": 673,
      "type": "VEC4"
    },
    {
      "bufferView": 4,
      "byteOffset": 16528,
      "componentType": 5126,
      "count": 673,
      "max": [
        1.0,
        0.49735361337661743,
        0.3017593026161194,
        0.168219655752182
      ],
      "min": [
        0.30328887701034546,
        0.0,
        0.0,
        0.0
      ],
      "type": "VEC4"
    },
    {
      "bufferView": 0,
      "byteOffset": 13648,
      "componentType": 5123,
      "count": 148,
      "type": "VEC4"
    },
    {
      "bufferView": 4,
      "byteOffset": 27296,
      "componentType": 5126,
      "count": 148,
      "max": [
        1.0,
        0.0,
        0.0,
        0.0
      ],
      "min": [
        1.0,
        0.0,
        0.0,
        0.0
      ],
      "type": "VEC4"
    }
  ],
  "asset": {
    "extras": {
      "author": "GR.blend (https://sketchfab.com/johnmodels)",
      "license": "CC-BY-4.0 (http://creativecommons.org/licenses/by/4.0/)",
      "source": "https://sketchfab.com/3d-models/audie-b28fbc0103ad45918652de8736eede5b",
      "title": "Audie"
    },
    "generator": "Sketchfab-12.67.0",
    "version": "2.0"
  },
  "bufferViews": [
    {
      "buffer": 0,
      "byteLength": 14832,
      "byteStride": 8,
      "name": "shortBufferViews",
      "target": 34962
    },
    {
      "buffer": 0,
      "byteLength": 26568,
      "byteOffset": 14832,
      "name": "floatBufferViews",
      "target": 34963
    },
    {
      "buffer": 0,
      "byteLength": 14832,
      "byteOffset": 41400,
      "byteStride": 8,
      "name": "floatBufferViews",
      "target": 34962
    },
    {
      "buffer": 0,
      "byteLength": 44496,
      "byteOffset": 56232,
      "byteStride": 12,
      "name": "floatBufferViews",
      "target": 34962
    },
    {
      "buffer": 0,
      "byteLength": 29664,
      "byteOffset": 100728,
      "byteStride": 16,
      "name": "floatBufferViews",
      "target": 34962
    },
    {
      "buffer": 0,
      "byteLength": 1920,
      "byteOffset": 130392,
      "name": "floatBufferViews"
    }
  ],
  "buffers": [
    {
      "byteLength": 132312,
      "uri": "scene.bin"
    }
  ],
  "extensionsUsed": [
    "KHR_materials_unlit"
  ],
  "images": [
    {
      "uri": "textures/eyes_baseColor.png"
    },
    {
      "uri": "textures/audie_face_baseColor.png"
    },
    {
      "uri": "textures/shirt_and_arms_baseColor.png"
    },
    {
      "uri": "textures/glasses_baseColor.png"
    }
  ],
  "materials": [
    {
      "doubleSided": true,
      "extensions": {
        "KHR_materials_unlit": {}
      },
      "name": "eyes",
      "pbrMetallicRoughness": {
        "baseColorTexture": {
          "index": 0
        },
        "metallicFactor": 0.0
      }
    },
    {
      "doubleSided": true,
      "extensions": {
        "KHR_materials_unlit": {}
      },
      "name": "audie_face",
      "pbrMetallicRoughness": {
        "baseColorTexture": {
          "index": 1
        },
        "metallicFactor": 0.0
      }
    },
    {
      "doubleSided": true,
      "extensions": {
        "KHR_materials_unlit": {}
      },
      "name": "shirt_and_arms",
      "pbrMetallicRoughness": {
        "baseColorTexture": {
          "index": 2
        },
        "metallicFactor": 0.0
      }
    },
    {
      "doubleSided": true,
      "extensions": {
        "KHR_materials_unlit": {}
      },
      "name": "glasses",
      "pbrMetallicRoughness": {
        "baseColorTexture": {
          "index": 3
        },
        "metallicFactor": 0.0
      }
    }
  ],
  "meshes": [
    {
      "name": "Plane.001_eyes_0",
      "primitives": [
        {
          "attributes": {
            "JOINTS_0": 17,
            "NORMAL": 1,
            "POSITION": 0,
            "TEXCOORD_0": 2,
            "WEIGHTS_0": 18
          },
          "indices": 3,
          "material": 0,
          "mode": 4
        }
      ]
    },
    {
      "name": "Plane.001_audie face_0",
      "primitives": [
        {
          "attributes": {
            "JOINTS_0": 19,
            "NORMAL": 5,
            "POSITION": 4,
            "TEXCOORD_0": 6,
            "WEIGHTS_0": 20
          },
          "indices": 7,
          "material": 1,
          "mode": 4
        }
      ]
    },
    {
      "name": "Plane.001_shirt and arms_0",
      "primitives": [
        {
          "attributes": {
            "JOINTS_0": 21,
            "NORMAL": 9,
            "POSITION": 8,
            "TEXCOORD_0": 10,
            "WEIGHTS_0": 22
          },
          "indices": 11,
          "material": 2,
          "mode": 4
        }
      ]
    },
    {
      "name": "Plane.001_glasses_0",
      "primitives": [
        {
          "attributes": {
            "JOINTS_0": 23,
            "NORMAL": 13,
            "POSITION": 12,
            "TEXCOORD_0": 14,
            "WEIGHTS_0": 24
          },
          "indices": 15,
          "material": 3,
          "mode": 4
        }
      ]
    }
  ],
  "nodes": [
    {
      "children": [
        1
      ],
      "matrix": [
        1.0,
        0.0,
        0.0,
        0.0,
        0.0,
        2.220446049250313e-16,
        -1.0,
        0.0,
        0.0,
        1.0,
        2.220446049250313e-16,
        0.0,
        0.0,
        0.0,
        0.0,
        1.0
      ],
      "name": "Sketchfab_model"
    },
    {
      "children": [
        2
      ],
      "matrix": [
        1.0,
        0.0,
        0.0,
        0.0,
        0.0,
        0.0,
        1.0,
        0.0,
        0.0,
        -1.0,
        0.0,
        0.0,
        0.0,
        0.0,
        0.0,
        1.0
      ],
      "name": "96a5e4bfd2454b368d2e3df32abd76cc.fbx"
    },
    {
      "children": [
        3
      ],
      "name": "RootNode"
    },
    {
      "children": [
        4
      ],
      "matrix": [
        100.0,
        0.0,
        0.0,
        0.0,
        0.0,
        -1.629206793918314e-05,
        -99.99999999999868,
        0.0,
        0.0,
        99.99999999999868,
        -1.629206793918314e-05,
        0.0,
        0.0,
        0.0,
        0.0,
        1.0
      ],
      "name": "metarig"
    },
    {
      "children": [
        5,
        7,
        8,
        9,
        10,
        6
      ],
      "name": "Object_4"
    },
    {
      "children": [
        11
      ],
      "name": "_rootJoint"
    },
    {
      "matrix": [
        100.00000000000568,
        1.1904986663770515e-13,
        9.782596621329443e-14,
        0.0,
        9.782597093904402e-14,
        1.3889577789006223e-06,
        -100.00000652107798,
        0.0,
        -1.1904987554512582e-13,
        100.00000634075978,
        1.3889577763960789e-06,
        0.0,
        -7.105427357601002e-13,
        2.6330772726623763e-06,
        1.4186386838588305e-06,
        1.0
      ],
      "name": "Object_6"
    },
    {
      "mesh": 0,
      "name": "Object_7",
      "skin": 0
    },
    {
      "mesh": 1,
      "name": "Object_8",
      "skin": 0
    },
    {
      "mesh": 2,
      "name": "Object_9",
      "skin": 0
    },
    {
      "mesh": 3,
      "name": "Object_10",
      "skin": 0
    },
    {
      "children": [
        12,
        17,
        22,
        37
      ],
      "name": "crotch_00",
      "rotation": [
        0.7642197608947754,
        7.688473857569988e-08,
        9.110209475693409e-08,
        0.6449559330940247
      ],
      "translation": [
        0.0,
        0.14080044627189636,
        0.8431473970413208
      ]
    },
    {
      "children": [
        13
      ],
      "name": "thigh.L_01",
      "rotation": [
        0.9818693995475769,
        0.0011848045978695154,
        0.006140533834695816,
        0.1894553154706955
      ],
      "scale": [
        0.9999979138374329,
        1.0000009536743164,
        1.0000015497207642
      ],
      "translation": [
        0.2037040740251541,
        0.20554903149604797,
        -0.07567194849252701
      ]
    },
    {
      "children": [
        14
      ],
      "name": "shin.L_02",
      "rotation": [
        0.19457612931728363,
        -0.01219446212053299,
        0.022708941251039505,
        0.9805486798286438
      ],
      "scale": [
        0.9999975562095642,
        0.9999988675117493,
        0.9999997615814209
      ],
      "translation": [
        -1.280568540096283e-09,
        0.44459787011146545,
        9.080395102500916e-09
      ]
    },
    {
      "children": [
        15
      ],
      "name": "foot.L_03",
      "rotation": [
        -0.7186814546585083,
        0.01276129949837923,
        0.014626017771661282,
        0.6950684785842896
      ],
      "scale": [
        0.9999998807907104,
        0.9999999403953552,
        1.0
      ],
      "translation": [
        -1.862645149230957e-09,
        0.5722618699073792,
        -9.89530235528946e-10
      ]
    },
    {
      "children": [
        16
      ],
      "name": "toe.L_04",
      "rotation": [
        0.01612149365246296,
        0.9991481304168701,
        -0.02919040620326996,
        -0.024312296882271767
      ],
      "scale": [
        1.0000001192092896,
        1.0000007152557373,
        1.0
      ],
      "translation": [
        3.4924596548080444e-09,
        0.11679454892873764,
        9.313225746154785e-10
      ]
    },
    {
      "name": "toe.L_end_023",
      "rotation": [
        1.3877787807814457e-17,
        1.5087774372967225e-21,
        -2.0938493124021996e-38,
        1.0
      ],
      "translation": [
        0.0,
        0.1526831090450287,
        -6.938893903907228e-18
      ]
    },
    {
      "children": [
        18
      ],
      "name": "thigh.R_05",
      "rotation": [
        0.9818693995475769,
        -0.001184829045087099,
        -0.006140302866697311,
        0.1894553154706955
      ],
      "scale": [
        0.9999978542327881,
        1.0000009536743164,
        1.0000015497207642
      ],
      "translation": [
        -0.20370404422283173,
        0.20554903149604797,
        -0.07567206770181656
      ]
    },
    {
      "children": [
        19
      ],
      "name": "shin.R_06",
      "rotation": [
        0.19457614421844482,
        0.012194463983178139,
        -0.022708918899297714,
        0.9805486798286438
      ],
      "scale": [
        0.9999975562095642,
        0.9999988079071045,
        0.9999997615814209
      ],
      "translation": [
        1.3737007975578308e-08,
        0.4445978105068207,
        6.984919309616089e-10
      ]
    },
    {
      "children": [
        20
      ],
      "name": "foot.R_07",
      "rotation": [
        -0.7186813950538635,
        -0.012761297635734081,
        -0.014626017771661282,
        0.6950685381889343
      ],
      "scale": [
        0.9999999403953552,
        0.9999999403953552,
        1.0
      ],
      "translation": [
        1.3969838619232178e-09,
        0.5722618699073792,
        -1.1641532182693481e-09
      ]
    },
    {
      "children": [
        21
      ],
      "name": "toe.R_08",
      "rotation": [
        -0.01612195186316967,
        0.9991481304168701,
        -0.029190344735980034,
        0.024311712011694908
      ],
      "scale": [
        1.0000001192092896,
        1.0000005960464478,
        1.0
      ],
      "translation": [
        -3.841705620288849e-09,
        0.11679455637931824,
        9.313225746154785e-10
      ]
    },
    {
      "name": "toe.R_end_024",
      "rotation": [
        1.3877787807814457e-17,
        3.1763735522036263e-22,
        -4.235164736271502e-22,
        1.0
      ],
      "translation": [
        2.7755575615628914e-17,
        0.1526831090450287,
        -6.938893903907228e-18
      ]
    },
    {
      "children": [
        23
      ],
      "name": "spine1_09",
      "rotation": [
        -0.06519810110330582,
        1.420949522732166e-14,
        -1.5544438625170187e-08,
        0.9978723526000977
      ],
      "translation": [
        1.3234889800848443e-23,
        0.2579379975795746,
        0.0
      ]
    },
    {
      "children": [
        24,
        27,
        32
      ],
      "name": "spine.003_010",
      "rotation": [
        -0.09841747581958771,
        -7.489922717414041e-15,
        -2.3464558296382165e-08,
        0.995145320892334
      ],
      "translation": [
        -1.7763568394002505e-15,
        0.6530282497406006,
        -1.4901161193847656e-08
      ]
    },
    {
      "children": [
        25
      ],
      "name": "head_011",
      "rotation": [
        0.7148717641830444,
        1.6671651792421471e-07,
        3.4087835842910863e-07,
        0.6992555856704712
      ],
      "scale": [
        1.0,
        0.9999999403953552,
        0.9999999403953552
      ],
      "translation": [
        3.552713678800501e-15,
        0.5687387585639954,
        0.0
      ]
    },
    {
      "children": [
        26
      ],
      "name": "jaw_012",
      "rotation": [
        0.17686302959918976,
        -1.173297732748324e-06,
        -8.433389808715219e-08,
        0.9842355847358704
      ],
      "scale": [
        1.0,
        0.9999999403953552,
        0.9999999403953552
      ],
      "translation": [
        5.506704169261703e-14,
        0.0,
        -9.12696123123169e-08
      ]
    },
    {
      "name": "jaw_end_025",
      "rotation": [
        2.802596928649634e-45,
        1.1249656330721176e-22,
        -2.6469779601696886e-23,
        1.0
      ],
      "translation": [
        -4.235164736271502e-22,
        0.5784741044044495,
        -4.440892098500626e-16
      ]
    },
    {
      "children": [
        28
      ],
      "name": "shoulder.L_013",
      "rotation": [
        -0.5053711533546448,
        -0.3189956545829773,
        -0.6128487586975098,
        0.516970157623291
      ],
      "scale": [
        0.9999998807907104,
        0.9999998807907104,
        1.0
      ],
      "translation": [
        0.11895985156297684,
        0.38820740580558777,
        -0.026344643905758858
      ]
    },
    {
      "children": [
        29
      ],
      "name": "upper_arm.L_014",
      "rotation": [
        -0.05233940854668617,
        0.715391218662262,
        0.018877141177654266,
        0.6965053081512451
      ],
      "scale": [
        1.0,
        1.0,
        0.9999998807907104
      ],
      "translation": [
        0.032906681299209595,
        0.19109389185905457,
        -0.07530376315116882
      ]
    },
    {
      "children": [
        30
      ],
      "name": "forearm.L_015",
      "rotation": [
        0.14070947468280792,
        -0.11704350262880325,
        0.04452759400010109,
        0.9820993542671204
      ],
      "scale": [
        1.0,
        1.0,
        0.9999999403953552
      ],
      "translation": [
        7.450580596923828e-08,
        0.35040611028671265,
        -2.2351741790771484e-08
      ]
    },
    {
      "children": [
        31
      ],
      "name": "hand.L_016",
      "rotation": [
        -0.15937082469463348,
        -0.0018343848641961813,
        0.021138017997145653,
        0.9869908690452576
      ],
      "scale": [
        0.9999999403953552,
        0.9999998211860657,
        0.9999997615814209
      ],
      "translation": [
        -3.259629011154175e-08,
        0.45223739743232727,
        -7.450580596923828e-09
      ]
    },
    {
      "name": "hand.L_end_026",
      "rotation": [
        2.7755575615628914e-17,
        -3.851859888774472e-34,
        -1.3877787807814457e-17,
        1.0
      ],
      "translation": [
        -2.220446049250313e-16,
        0.17903625965118408,
        0.0
      ]
    },
    {
      "children": [
        33
      ],
      "name": "shoulder.R_017",
      "rotation": [
        -0.5053712725639343,
        0.31899556517601013,
        0.6128486394882202,
        0.5169702768325806
      ],
      "scale": [
        1.0,
        1.0,
        0.9999999403953552
      ],
      "translation": [
        -0.11895983666181564,
        0.38820740580558777,
        -0.026344699785113335
      ]
    },
    {
      "children": [
        34
      ],
      "name": "upper_arm.R_018",
      "rotation": [
        -0.05233949050307274,
        -0.715391218662262,
        -0.018877143040299416,
        0.6965053081512451
      ],
      "scale": [
        1.0,
        1.0,
        0.9999999403953552
      ],
      "translation": [
        -0.03290669620037079,
        0.19109392166137695,
        -0.07530340552330017
      ]
    },
    {
      "children": [
        35
      ],
      "name": "forearm.R_019",
      "rotation": [
        0.14070948958396912,
        0.11704351007938385,
        -0.044527631253004074,
        0.9820993542671204
      ],
      "scale": [
        1.0,
        1.0000001192092896,
        1.0
      ],
      "translation": [
        -6.705522537231445e-08,
        0.35040605068206787,
        -2.2351741790771484e-08
      ]
    },
    {
      "children": [
        36
      ],
      "name": "hand.R_020",
      "rotation": [
        -0.15937082469463348,
        0.0018343854462727904,
        -0.021138029173016548,
        0.9869908690452576
      ],
      "scale": [
        0.9999999403953552,
        0.9999998211860657,
        0.9999998211860657
      ],
      "translation": [
        -9.313225746154785e-08,
        0.45223718881607056,
        1.4901161193847656e-08
      ]
    },
    {
      "name": "hand.R_end_027",
      "rotation": [
        -1.3877787807814457e-17,
        6.938893903907228e-18,
        6.938893903907228e-18,
        1.0
      ],
      "translation": [
        -2.220446049250313e-16,
        0.17903625965118408,
        -2.7755575615628914e-17
      ]
    },
    {
      "children": [
        38
      ],
      "name": "tail1_021",
      "rotation": [
        0.9714492559432983,
        -6.748949814804062e-13,
        2.3161123863246758e-07,
        -0.237247496843338
      ],
      "scale": [
        1.0,
        0.9999999403953552,
        0.9999985694885254
      ],
      "translation": [
        5.759453003406634e-08,
        0.1934731900691986,
        -0.24156896770000458
      ]
    },
    {
      "children": [
        39
      ],
      "name": "tail2_022",
      "rotation": [
        0.38041529059410095,
        9.617103662908077e-14,
        9.069800199767997e-08,
        0.9248158931732178
      ],
      "scale": [
        1.0,
        0.9999998807907104,
        0.9999998807907104
      ],
      "translation": [
        2.1316282072803006e-14,
        0.630302369594574,
        0.0
      ]
    },
    {
      "name": "tail2_end_028",
      "rotation": [
        -0.0,
        4.0531850015098356e-23,
        9.926167350636332e-24,
        1.0
      ],
      "translation": [
        0.0,
        0.6411864161491394,
        1.1102230246251565e-16
      ]
    }
  ],
  "samplers": [
    {
      "magFilter": 9729,
      "minFilter": 9987,
      "wrapS": 10497,
      "wrapT": 10497
    }
  ],
  "scene": 0,
  "scenes": [
    {
      "name": "Sketchfab_Scene",
      "nodes": [
        0
      ]
    }
  ],
  "skins": [
    {
      "inverseBindMatrices": 16,
      "joints": [
        5,
        11,
        12,
        13,
        14,
        15,
        16,
        17,
        18,
        19,
        20,
        21,
        22,
        23,
        24,
        25,
        26,
        27,
        28,
        29,
        30,
        31,
        32,
        33,
        34,
        35,
        36,
        37,
        38,
        39
      ],
      "skeleton": 5
    }
  ],
  "textures": [
    {
      "sampler": 0,
      "source": 0
    },
    {
      "sampler": 0,
      "source": 1
    },
    {
      "sampler": 0,
      "source": 2
    },
    {
      "sampler": 0,
      "source": 3
    }
  ]
}
